<?xml version="1.0" encoding="utf-8"?>
<svg viewBox="0 0 500 500" xmlns="http://www.w3.org/2000/svg">
  <g shape-rendering="auto" transform="matrix(1, 0, 0, 1, -19.822851, -10.062831)">
    <path d="m257.15 55.981c-8.5612-0.15002-16.251 3.3925-35.608 9.6759-38.623 12.537-42.056 12.692-68.651 3.0988-16.255-5.8637-16.733-5.9348-16.548-2.4395 0.0761 1.445 7.795 8.7742 17.154 16.288 24.905 19.995 29.424 26.378 31.334 44.259 1.7592 16.464 9.5335 35.558 18.222 44.751 7.7955 8.2481 21.702 17.642 28.725 19.404l5.8444 1.4672-1.4165 22.298c-4.5717 71.959-17.896 127.23-37.04 153.66-24.919 34.397-31.436 48.646-31.436 68.083s20.698 19.451 44.363 19.451h88.062c23.53 0 44.123-0.0176 44.123-19.451 0-14.952-3.8963-26.872-17.024-47.223 9.0266-14.533 10.498-35.426-0.0734-63.153-5.0926-13.356-6.3817-22.525-5.8164-28.325 0.56536-5.7999 2.3745-8.4749 5.6118-11.246 6.4746-5.5427 20.816-8.4345 34.209-16.433a8.9545 8.9545 0 0 0-4.3264-16.704 8.9545 8.9545 0 0 0-4.8546 1.3308c-9.2087 5.4997-24.526 7.8022-36.675 18.203-6.0747 5.2004-10.819 13.185-11.787 23.112-0.96766 9.9268 1.2294 21.554 6.9058 36.442 7.2461 19.004 8.0406 31.155 5.2812 39.94-0.94852-1.3271-1.8792-2.6343-2.8872-4.0256-19.145-26.426-32.469-81.699-37.04-153.66l-1.4165-22.298 5.8444-1.4672c7.0231-1.7627 20.93-11.156 28.725-19.404 8.6885-9.193 16.463-28.287 18.222-44.751 1.9106-17.881 6.4296-24.264 31.334-44.259 9.3586-7.5138 17.077-14.843 17.154-16.288 0.18411-3.4953-0.29308-3.4241-16.549 2.4395-26.595 9.5934-30.028 9.4382-68.651-3.0988-17.526-6.5364-25.76-9.5435-33.314-9.6759z" color="#000000" color-rendering="auto" dominant-baseline="auto" image-rendering="auto" solid-color="#000000" stroke-linecap="round" stroke-linejoin="round" style="font-feature-settings: normal; font-variant-caps: normal; font-variant-ligatures: normal; font-variant-numeric: normal; isolation: auto; mix-blend-mode: normal; text-decoration-color: rgb(0, 0, 0); text-decoration-line: none; text-decoration-style: solid; text-indent: 0px; text-orientation: mixed; text-transform: none; white-space: normal; fill: rgb(255, 255, 255); stroke: rgb(0, 0, 0); stroke-width: 11px;"/>
    <path d="m257.15 64.005c-8.5612-0.15002-16.251 3.3925-35.608 9.6759-38.623 12.537-42.056 12.692-68.651 3.0988-16.255-5.8637-16.733-5.9348-16.548-2.4395 0.0761 1.445 7.795 8.7742 17.154 16.288 24.905 19.995 29.424 26.378 31.334 44.259 1.7592 16.464 9.5335 35.558 18.222 44.751 7.7955 8.2481 21.702 17.642 28.725 19.404l5.8444 1.4672-1.4165 22.298c-4.5717 71.959-17.896 127.23-37.04 153.66-24.919 34.397-31.436 48.646-31.436 68.083s20.698 19.451 44.363 19.451h88.062c23.53 0 44.123-0.0176 44.123-19.451 0-14.952-3.8963-26.872-17.024-47.223 9.0266-14.533 10.498-35.426-0.0734-63.153-5.0926-13.356-6.3817-22.525-5.8164-28.325 0.56536-5.7999 2.3745-8.4749 5.6118-11.246 6.4746-5.5427 20.816-8.4345 34.209-16.433a8.9545 8.9545 0 0 0-4.3264-16.704 8.9545 8.9545 0 0 0-4.8546 1.3308c-9.2087 5.4997-24.526 7.8022-36.675 18.203-6.0747 5.2004-10.819 13.185-11.787 23.112-0.96765 9.9268 1.2294 21.554 6.9058 36.442 7.2461 19.004 8.0406 31.155 5.2813 39.94-0.94853-1.3271-1.8793-2.6343-2.8872-4.0256-19.145-26.426-32.469-81.699-37.04-153.66l-1.4165-22.298 5.8444-1.4672c7.0231-1.7627 20.93-11.156 28.725-19.404 8.6885-9.193 16.463-28.287 18.222-44.751 1.9106-17.881 6.4296-24.264 31.334-44.259 9.3586-7.5138 17.077-14.843 17.154-16.288 0.18412-3.4953-0.29308-3.4241-16.548 2.4395-26.595 9.5934-30.028 9.4382-68.651-3.0988-17.526-6.5364-25.76-9.5435-33.314-9.6759z" color="#000000" color-rendering="auto" dominant-baseline="auto" image-rendering="auto" opacity=".3" solid-color="#000000" style="font-feature-settings: normal; font-variant-caps: normal; font-variant-ligatures: normal; font-variant-numeric: normal; isolation: auto; mix-blend-mode: normal; text-decoration-color: rgb(0, 0, 0); text-decoration-line: none; text-decoration-style: solid; text-indent: 0px; text-orientation: mixed; text-transform: none; white-space: normal; fill: rgb(255, 255, 255); stroke: rgb(0, 0, 0); stroke-width: 11px;"/>
    <path d="m257.15 56.005c-8.5612-0.15002-16.251 3.3925-35.608 9.6759-38.623 12.537-42.056 12.692-68.651 3.0988-16.255-5.8637-16.733-5.9348-16.548-2.4395 0.0761 1.445 7.795 8.7742 17.154 16.288 24.905 19.995 29.424 26.378 31.334 44.259 1.7592 16.464 9.5335 35.558 18.222 44.751 7.7955 8.2481 21.702 17.642 28.725 19.404l5.8444 1.4672-1.4165 22.298c-4.5717 71.959-17.896 127.23-37.04 153.66-24.919 34.397-31.436 48.646-31.436 68.083s20.698 19.451 44.363 19.451h88.062c23.53 0 44.123-0.0176 44.123-19.451 0-14.952-3.8963-26.872-17.024-47.223 9.0266-14.533 10.498-35.426-0.0734-63.153-5.0926-13.356-6.3817-22.525-5.8164-28.325 0.56536-5.7999 2.3745-8.4749 5.6118-11.246 6.4746-5.5427 20.816-8.4345 34.209-16.433a8.9545 8.9545 0 0 0-4.3264-16.704 8.9545 8.9545 0 0 0-4.8546 1.3308c-9.2087 5.4997-24.526 7.8022-36.675 18.203-6.0747 5.2004-10.819 13.185-11.787 23.112-0.96765 9.9268 1.2294 21.554 6.9058 36.442 7.2461 19.004 8.0406 31.155 5.2813 39.94-0.94853-1.3271-1.8793-2.6343-2.8872-4.0256-19.145-26.426-32.469-81.699-37.04-153.66l-1.4165-22.298 5.8444-1.4672c7.0231-1.7627 20.93-11.156 28.725-19.404 8.6885-9.193 16.463-28.287 18.222-44.751 1.9106-17.881 6.4296-24.264 31.334-44.259 9.3586-7.5138 17.077-14.843 17.154-16.288 0.18412-3.4953-0.29308-3.4241-16.548 2.4395-26.595 9.5934-30.028 9.4382-68.651-3.0988-17.526-6.5364-25.76-9.5435-33.314-9.6759z" color="#000000" color-rendering="auto" dominant-baseline="auto" image-rendering="auto" solid-color="#000000" style="font-feature-settings: normal; font-variant-caps: normal; font-variant-ligatures: normal; font-variant-numeric: normal; isolation: auto; mix-blend-mode: normal; text-decoration-color: rgb(0, 0, 0); text-decoration-line: none; text-decoration-style: solid; text-indent: 0px; text-orientation: mixed; text-transform: none; white-space: normal; fill: rgb(255, 255, 255); stroke: rgb(0, 0, 0); stroke-width: 11px;"/>
  </g>
  <path d="M 189.617 118.701 C 188.165 118.556 188.379 122.131 190.736 127.773 C 192.468 131.919 197.017 137.243 200.843 139.605 C 209.635 145.034 220.409 144.526 220.409 138.681 C 220.409 135.64 217.207 133.367 207.8 129.738 C 200.864 127.062 194.016 123.292 192.583 121.359 C 191.28 119.601 190.276 118.767 189.616 118.701 L 189.617 118.701 Z M 283.047 119.222 C 282.226 119.216 280.749 120.251 278.637 122.363 C 276.368 124.632 269.681 128.095 263.776 130.056 C 252.218 133.895 249.855 135.986 251.686 140.757 C 255.004 149.403 276.465 140.091 281.612 127.773 C 283.968 122.135 284.417 119.232 283.047 119.223 L 283.047 119.222 Z" opacity=".3" stroke-width="2.1018" style="fill: rgb(255, 255, 255); stroke: rgb(0, 0, 0);"/>
  <path d="M 189.617 122.701 C 188.165 122.556 188.379 126.131 190.736 131.773 C 192.468 135.919 197.017 141.245 200.843 143.607 C 209.635 149.036 220.409 148.526 220.409 142.682 C 220.409 139.64 217.207 137.368 207.8 133.738 C 200.864 131.062 194.016 127.292 192.583 125.359 C 191.28 123.601 190.276 122.767 189.616 122.701 L 189.617 122.701 Z M 283.047 123.222 C 282.226 123.217 280.749 124.251 278.637 126.363 C 276.368 128.632 269.679 132.095 263.774 134.056 C 252.216 137.895 249.855 139.986 251.686 144.757 C 255.004 153.403 276.465 144.091 281.612 131.773 C 283.968 126.135 284.417 123.232 283.048 123.223 L 283.047 123.222 Z" stroke-width="2.1018" style="fill: rgb(255, 255, 255); stroke: rgb(0, 0, 0);"/>
</svg>